# xmcd
#
# Track frame offsets: 
#        150
#        14095
#        32274
#        49615
#        65967
#        84072
#        99177
#        117671
#        133006
#        147654
#
# Disc length: 2159 seconds
#
# Revision: 0
# Processed by: cddbd v1.5.2PL0 Copyright (c) Steve Scherf et al.
# Submitted via: ExactAudioCopy v0.99pb3
#
DISCID=88086d0a
DTITLE=SPIN - Natural
DYEAR=2006
DGENRE=BritPop
TTITLE0=Sunt fericita
TTITLE1=Înca o zi
TTITLE2=Da-mi un semn
TTITLE3=Spin
TTITLE4=O parte din mine
TTITLE5=Ploaia
TTITLE6=Întrebari
TTITLE7=Amintirea ta
TTITLE8=Ramâi cu bine
TTITLE9=Mai vreau
EXTD=
EXTT0=
EXTT1=
EXTT2=
EXTT3=
EXTT4=
EXTT5=
EXTT6=
EXTT7=
EXTT8=
EXTT9=
PLAYORDER=
